name Run_200 02_newCOP3_v24.mot
datacolumns 19
datarows 100
range 2.895 2.9445
DataType=double
version=3
OpenSimVersion=4.3-2021-08-27-4bc7ad9
endheader
time	R_ground_force_vx	R_ground_force_vy	R_ground_force_vz	R_ground_force_px	R_ground_force_py	R_ground_force_pz	L_ground_force_vx	L_ground_force_vy	L_ground_force_vz	L_ground_force_px	L_ground_force_py	L_ground_force_pz	R_ground_torque_x	R_ground_torque_y	R_ground_torque_z	L_ground_torque_x	L_ground_torque_y	L_ground_torque_z
2.895	0.049337	0.317141	0.801481	0	0	0	-81.238686	1119.434204	100.617363	0.974422	0	-0.558673	0	0	0	0	-0.98094	0
2.8955	0.038266	0.295977	0.794253	0	0	0	-80.59635900000001	1120.934937	101.020195	0.973742	0	-0.558783	0	0	0	0	-1.012794	0
2.896	0.02748	0.275084	0.786534	0	0	0	-79.95089	1122.395386	101.414291	0.973061	0	-0.5588920000000001	0	0	0	0	-1.043391	0
2.8965	0.017025	0.254563	0.77834	0	0	0	-79.303017	1123.815063	101.799767	0.972378	0	-0.5590000000000001	0	0	0	0	-1.07273	0
2.897	0.006945	0.234509	0.769688	0	0	0	-78.653458	1125.193604	102.176727	0.9716939999999999	0	-0.559107	0	0	0	0	-1.10081	0
2.8975	-0.002723	0.215006	0.760594	0	0	0	-78.002914	1126.530884	102.54528	0.971009	0	-0.559213	0	0	0	0	-1.127629	0
2.898	-0.011947	0.196133	0.751077	0	0	0	-77.352058	1127.826538	102.905525	0.970322	0	-0.559318	0	0	0	0	-1.15319	0
2.8985	-0.020698	0.17796	0.741158	0	0	0	-76.701561	1129.080444	103.257553	0.969634	0	-0.559423	0	0	0	0	-1.177494	0
2.899	-0.028955	0.160547	0.730854	0	0	0	-76.052048	1130.292603	103.601471	0.9689449999999999	0	-0.559527	0	0	0	0	-1.200545	0
2.8995	-0.036702	0.143944	0.720189	0	0	0	-75.40413700000001	1131.462769	103.937363	0.968255	0	-0.559629	0	0	0	0	-1.222347	0
2.9	-0.043928	0.128195	0.709181	0	0	0	-74.758392	1132.590942	104.265312	0.967564	0	-0.559732	0	0	0	0	-1.242903	0
2.9005	-0.050626	0.113334	0.697854	0	0	0	-74.11537199999999	1133.677246	104.585411	0.966873	0	-0.559833	0	0	0	0	-1.262222	0
2.901	-0.056794	0.099386	0.68623	0	0	0	-73.47558600000001	1134.72168	104.897743	0.966182	0	-0.559933	0	0	0	0	-1.280309	0
2.9015	-0.062437	0.086367	0.67433	0	0	0	-72.839523	1135.724487	105.202385	0.96549	0	-0.560033	0	0	0	0	-1.297172	0
2.902	-0.067562	0.07428899999999999	0.662176	0	0	0	-72.207634	1136.685669	105.499397	0.964799	0	-0.560132	0	0	0	0	-1.31282	0
2.9025	-0.07217800000000001	0.063153	0.649792	0	0	0	-71.580322	1137.605713	105.788872	0.964108	0	-0.56023	0	0	0	0	-1.327263	0
2.903	-0.07630000000000001	0.052954	0.6372	0	0	0	-70.95796199999999	1138.484497	106.070869	0.963417	0	-0.560327	0	0	0	0	-1.34051	0
2.9035	-0.079944	0.043683	0.624421	0	0	0	-70.34090399999999	1139.322754	106.345444	0.962726	0	-0.560424	0	0	0	0	-1.352574	0
2.904	-0.083131	0.035323	0.611478	0	0	0	-69.729439	1140.120483	106.612671	0.962037	0	-0.56052	0	0	0	0	-1.363466	0
2.9045	-0.085881	0.027852	0.598393	0	0	0	-69.123825	1140.878296	106.872597	0.961348	0	-0.560615	0	0	0	0	-1.373199	0
2.905	-0.088216	0.021246	0.585187	0	0	0	-68.52428399999999	1141.596558	107.125275	0.960661	0	-0.560709	0	0	0	0	-1.381787	0
2.9055	-0.09016	0.015475	0.571881	0	0	0	-67.931	1142.275635	107.370766	0.959975	0	-0.560802	0	0	0	0	-1.389244	0
2.906	-0.091737	0.010506	0.558495	0	0	0	-67.344109	1142.91626	107.6091	0.95929	0	-0.560895	0	0	0	0	-1.395585	0
2.9065	-0.09297	0.006304	0.54505	0	0	0	-66.763718	1143.518799	107.840332	0.958608	0	-0.560986	0	0	0	0	-1.400825	0
2.907	-0.093885	0.002831	0.531564	0	0	0	-66.18988	1144.083862	108.064484	0.957927	0	-0.561077	0	0	0	0	-1.404982	0
2.9075	-0.094503	4.8e-05	0.518058	0	0	0	-65.62262	1144.612183	108.281609	0.957249	0	-0.561167	0	0	0	0	-1.408072	0
2.908	-0.094847	-0.002087	0.504548	0	0	0	-65.06192799999999	1145.104126	108.491722	0.956573	0	-0.561256	0	0	0	0	-1.410113	0
2.9085	-0.094939	-0.003614	0.491053	0	0	0	-64.50773599999999	1145.560547	108.694847	0.9558990000000001	0	-0.561345	0	0	0	0	-1.411122	0
2.909	-0.09479700000000001	-0.004576	0.477589	0	0	0	-63.959957	1145.981934	108.891022	0.955228	0	-0.561432	0	0	0	0	-1.41112	0
2.9095	-0.094439	-0.005016	0.464172	0	0	0	-63.418461	1146.369263	109.080254	0.954559	0	-0.561519	0	0	0	0	-1.410125	0
2.91	-0.09388100000000001	-0.004975	0.450818	0	0	0	-62.883087	1146.7229	109.262558	0.953894	0	-0.561605	0	0	0	0	-1.408156	0
2.9105	-0.093136	-0.004496	0.437542	0	0	0	-62.35363	1147.043701	109.43795	0.9532310000000001	0	-0.561689	0	0	0	0	-1.405235	0
2.911	-0.09221600000000001	-0.00362	0.424357	0	0	0	-61.829872	1147.33252	109.606438	0.9525709999999999	0	-0.561773	0	0	0	0	-1.401381	0
2.9115	-0.091129	-0.002388	0.411277	0	0	0	-61.311543	1147.589844	109.768028	0.951914	0	-0.5618570000000001	0	0	0	0	-1.396617	0
2.912	-0.089882	-0.00084	0.398315	0	0	0	-60.798363	1147.816528	109.922714	0.95126	0	-0.561939	0	0	0	0	-1.390964	0
2.9125	-0.088478	0.000985	0.385481	0	0	0	-60.29002	1148.013184	110.070511	0.950609	0	-0.56202	0	0	0	0	-1.384443	0
2.913	-0.08692	0.003048	0.372789	0	0	0	-59.786175	1148.180664	110.211403	0.9499610000000001	0	-0.562101	0	0	0	0	-1.377078	0
2.9135	-0.085205	0.005314	0.360247	0	0	0	-59.28648	1148.31958	110.34539	0.949315	0	-0.56218	0	0	0	0	-1.368891	0
2.914	-0.08333	0.007746	0.347866	0	0	0	-58.790558	1148.430786	110.472466	0.948673	0	-0.562259	0	0	0	0	-1.359905	0
2.9145	-0.081289	0.01031	0.335655	0	0	0	-58.298019	1148.514771	110.592621	0.948033	0	-0.562337	0	0	0	0	-1.350143	0
2.915	-0.07907400000000001	0.012971	0.323623	0	0	0	-57.808475	1148.57251	110.705856	0.947396	0	-0.5624130000000001	0	0	0	0	-1.339629	0
2.9155	-0.07667499999999999	0.015698	0.311779	0	0	0	-57.32151	1148.60437	110.812157	0.946761	0	-0.562489	0	0	0	0	-1.328387	0
2.916	-0.07407900000000001	0.018459	0.30013	0	0	0	-56.836723	1148.611206	110.911507	0.946128	0	-0.562564	0	0	0	0	-1.316441	0
2.9165	-0.071272	0.021224	0.288684	0	0	0	-56.353695	1148.593506	111.003914	0.9454979999999999	0	-0.562639	0	0	0	0	-1.303815	0
2.917	-0.06824	0.023963	0.277447	0	0	0	-55.872013	1148.552124	111.089363	0.944869	0	-0.562712	0	0	0	0	-1.290534	0
2.9175	-0.06496499999999999	0.02665	0.266426	0	0	0	-55.391273	1148.487427	111.167847	0.944242	0	-0.562784	0	0	0	0	-1.276621	0
2.918	-0.061429	0.029256	0.255627	0	0	0	-54.911079	1148.400024	111.239365	0.943617	0	-0.562856	0	0	0	0	-1.262103	0
2.9185	-0.057614	0.031756	0.245056	0	0	0	-54.431038	1148.290649	111.303909	0.942993	0	-0.562927	0	0	0	0	-1.247003	0
2.919	-0.053502	0.034126	0.23472	0	0	0	-53.950779	1148.159668	111.361488	0.94237	0	-0.562997	0	0	0	0	-1.231347	0
2.9195	-0.049072	0.036341	0.224623	0	0	0	-53.469936	1148.007568	111.412109	0.941748	0	-0.563066	0	0	0	0	-1.21516	0
2.92	-0.044308	0.038379	0.21477	0	0	0	-52.988171	1147.834961	111.455772	0.941127	0	-0.563134	0	0	0	0	-1.198465	0
2.9205	-0.03919	0.040218	0.205167	0	0	0	-52.505161	1147.642212	111.4925	0.940506	0	-0.563202	0	0	0	0	-1.18129	0
2.921	-0.033702	0.041839	0.19582	0	0	0	-52.020611	1147.42981	111.522301	0.939886	0	-0.563268	0	0	0	0	-1.163658	0
2.9215	-0.027828	0.043221	0.186732	0	0	0	-51.534237	1147.197998	111.545212	0.939266	0	-0.563334	0	0	0	0	-1.145595	0
2.922	-0.021554	0.044348	0.177908	0	0	0	-51.045788	1146.947144	111.561249	0.938645	0	-0.5634	0	0	0	0	-1.127125	0
2.9225	-0.014869	0.045202	0.169355	0	0	0	-50.555042	1146.677734	111.57045	0.938025	0	-0.563464	0	0	0	0	-1.108273	0
2.923	-0.007763	0.045769	0.161075	0	0	0	-50.06179	1146.389893	111.572853	0.937404	0	-0.563528	0	0	0	0	-1.089064	0
2.9235	-0.000231	0.046035	0.153075	0	0	0	-49.565861	1146.083984	111.568512	0.936782	0	-0.563592	0	0	0	0	-1.069523	0
2.924	0.007732	0.045987	0.145359	0	0	0	-49.067101	1145.760132	111.55748	0.93616	0	-0.563654	0	0	0	0	-1.049675	0
2.9245	0.016124	0.045616	0.137931	0	0	0	-48.56538	1145.418701	111.53981	0.935536	0	-0.563716	0	0	0	0	-1.029543	0
2.925	0.024942	0.044912	0.130797	0	0	0	-48.060604	1145.05957	111.515579	0.934912	0	-0.563778	0	0	0	0	-1.009151	0
2.9255	0.034176	0.043869	0.123962	0	0	0	-47.552692	1144.682983	111.484856	0.934287	0	-0.563839	0	0	0	0	-0.988525	0
2.926	0.043814	0.042481	0.11743	0	0	0	-47.041584	1144.289063	111.447731	0.93366	0	-0.563899	0	0	0	0	-0.967687	0
2.9265	0.053839	0.040745	0.111206	0	0	0	-46.527245	1143.877808	111.404274	0.933032	0	-0.563959	0	0	0	0	-0.946661	0
2.927	0.06422700000000001	0.038659	0.105296	0	0	0	-46.009655	1143.449219	111.354599	0.932403	0	-0.564018	0	0	0	0	-0.925471	0
2.9275	0.07495400000000001	0.036225	0.099702	0	0	0	-45.488815	1143.003174	111.298798	0.931772	0	-0.5640770000000001	0	0	0	0	-0.9041400000000001	0
2.928	0.08598500000000001	0.033444	0.094432	0	0	0	-44.964745	1142.539673	111.236984	0.93114	0	-0.564136	0	0	0	0	-0.88269	0
2.9285	0.097286	0.030322	0.089488	0	0	0	-44.437469	1142.058716	111.169266	0.9305060000000001	0	-0.5641929999999999	0	0	0	0	-0.861144	0
2.929	0.108814	0.026864	0.08487500000000001	0	0	0	-43.907032	1141.559937	111.095764	0.929871	0	-0.5642509999999999	0	0	0	0	-0.839524	0
2.9295	0.120523	0.023079	0.080598	0	0	0	-43.373489	1141.043335	111.016609	0.929234	0	-0.564308	0	0	0	0	-0.817852	0
2.93	0.132363	0.018978	0.07666000000000001	0	0	0	-42.836899	1140.508545	110.931923	0.928596	0	-0.564365	0	0	0	0	-0.796149	0
2.9305	0.144279	0.014574	0.07306600000000001	0	0	0	-42.297333	1139.955566	110.84185	0.927957	0	-0.564421	0	0	0	0	-0.774437	0
2.931	0.156212	0.009879000000000001	0.06981800000000001	0	0	0	-41.754875	1139.383911	110.746513	0.9273169999999999	0	-0.564477	0	0	0	0	-0.752737	0
2.9315	0.1681	0.00491	0.06691999999999999	0	0	0	-41.209606	1138.793457	110.646065	0.926675	0	-0.564532	0	0	0	0	-0.731069	0
2.932	0.17988	-0.000316	0.064375	0	0	0	-40.661621	1138.183716	110.540642	0.926032	0	-0.564587	0	0	0	0	-0.709452	0
2.9325	0.191482	-0.00578	0.062183	0	0	0	-40.111012	1137.554443	110.430397	0.925388	0	-0.564642	0	0	0	0	-0.687907	0
2.933	0.202838	-0.011462	0.060348	0	0	0	-39.557884	1136.905396	110.315468	0.924742	0	-0.564696	0	0	0	0	-0.666453	0
2.9335	0.213877	-0.017341	0.05887	0	0	0	-39.00235	1136.235962	110.195999	0.924096	0	-0.56475	0	0	0	0	-0.645108	0
2.934	0.224528	-0.023394	0.05775	0	0	0	-38.444515	1135.545898	110.072151	0.92345	0	-0.5648030000000001	0	0	0	0	-0.623891	0
2.9345	0.23472	-0.029598	0.056987	0	0	0	-37.884499	1134.834717	109.944054	0.922802	0	-0.564856	0	0	0	0	-0.602819	0
2.935	0.244383	-0.035929	0.056581	0	0	0	-37.322433	1134.102051	109.811852	0.922154	0	-0.564908	0	0	0	0	-0.581911	0
2.9355	0.253448	-0.042363	0.056529	0	0	0	-36.758446	1133.347534	109.675697	0.921506	0	-0.56496	0	0	0	0	-0.561182	0
2.936	0.261848	-0.048875	0.056829	0	0	0	-36.192677	1132.570679	109.535721	0.920857	0	-0.565012	0	0	0	0	-0.540649	0
2.9365	0.269521	-0.05544	0.057478	0	0	0	-35.625275	1131.771118	109.392052	0.920208	0	-0.565063	0	0	0	0	-0.520328	0
2.937	0.276406	-0.062033	0.058471	0	0	0	-35.056396	1130.948364	109.244827	0.919559	0	-0.565113	0	0	0	0	-0.500235	0
2.9375	0.282448	-0.06863	0.059803	0	0	0	-34.486206	1130.101929	109.094177	0.91891	0	-0.565163	0	0	0	0	-0.480384	0
2.938	0.287597	-0.075206	0.061467	0	0	0	-33.914883	1129.231445	108.940208	0.918262	0	-0.565213	0	0	0	0	-0.46079	0
2.9385	0.291809	-0.081737	0.063458	0	0	0	-33.342602	1128.336548	108.783035	0.917613	0	-0.565262	0	0	0	0	-0.441466	0
2.939	0.295046	-0.0882	0.065765	0	0	0	-32.769569	1127.416748	108.62278	0.916965	0	-0.565311	0	0	0	0	-0.422426	0
2.9395	0.297275	-0.094571	0.068381	0	0	0	-32.19598	1126.47168	108.459526	0.916318	0	-0.5653589999999999	0	0	0	0	-0.403683	0
2.94	0.298474	-0.100831	0.071295	0	0	0	-31.622055	1125.500977	108.293373	0.915671	0	-0.565406	0	0	0	0	-0.385248	0
2.9405	0.298624	-0.106956	0.07449600000000001	0	0	0	-31.048014	1124.504272	108.124413	0.915025	0	-0.565454	0	0	0	0	-0.367134	0
2.941	0.297719	-0.112929	0.077971	0	0	0	-30.474085	1123.481079	107.952713	0.91438	0	-0.5655	0	0	0	0	-0.349351	0
2.9415	0.295755	-0.118729	0.081708	0	0	0	-29.900507	1122.43103	107.778351	0.913735	0	-0.565546	0	0	0	0	-0.33191	0
2.942	0.292741	-0.12434	0.085692	0	0	0	-29.32752	1121.353882	107.601387	0.913092	0	-0.565592	0	0	0	0	-0.314822	0
2.9425	0.288692	-0.129744	0.089909	0	0	0	-28.755371	1120.24939	107.421875	0.912449	0	-0.5656369999999999	0	0	0	0	-0.298094	0
2.943	0.283631	-0.134928	0.094342	0	0	0	-28.184305	1119.117065	107.239861	0.911808	0	-0.565681	0	0	0	0	-0.281737	0
2.9435	0.277587	-0.139876	0.09897599999999999	0	0	0	-27.614565	1117.956665	107.055382	0.9111669999999999	0	-0.565725	0	0	0	0	-0.265759	0
2.944	0.270601	-0.144576	0.103792	0	0	0	-27.046398	1116.767822	106.868477	0.910528	0	-0.565768	0	0	0	0	-0.250167	0
2.9445	0.262715	-0.149017	0.108773	0	0	0	-26.48004	1115.550415	106.679169	0.9098889999999999	0	-0.565811	0	0	0	0	-0.234969	0
